<svg width="24" height="24" viewBox="0 0 24 24" fill="none" xmlns="http://www.w3.org/2000/svg">
<rect width="24" height="24" rx="12" fill="#977656"/>
<path d="M11.6293 16.1918C10.8963 16.1889 10.2656 16.0085 9.73722 15.6506C9.21165 15.2926 8.80682 14.7741 8.52273 14.0952C8.24148 13.4162 8.10227 12.5994 8.10511 11.6449C8.10511 10.6932 8.24574 9.8821 8.52699 9.21165C8.81108 8.54119 9.21591 8.03125 9.74148 7.68182C10.2699 7.32955 10.8991 7.15341 11.6293 7.15341C12.3594 7.15341 12.9872 7.32955 13.5128 7.68182C14.0412 8.03409 14.4474 8.54545 14.7315 9.21591C15.0156 9.88352 15.1563 10.6932 15.1534 11.6449C15.1534 12.6023 15.0114 13.4205 14.7273 14.0994C14.446 14.7784 14.0426 15.2969 13.517 15.6548C12.9915 16.0128 12.3622 16.1918 11.6293 16.1918ZM11.6293 14.6619C12.1293 14.6619 12.5284 14.4105 12.8267 13.9077C13.125 13.4048 13.2727 12.6506 13.2699 11.6449C13.2699 10.983 13.2017 10.4318 13.0653 9.99148C12.9318 9.55114 12.7415 9.22017 12.4943 8.99858C12.25 8.77699 11.9616 8.66619 11.6293 8.66619C11.1321 8.66619 10.7344 8.91477 10.4361 9.41193C10.1378 9.90909 9.98722 10.6534 9.98438 11.6449C9.98438 12.3153 10.0511 12.875 10.1847 13.3239C10.321 13.7699 10.5128 14.1051 10.7599 14.3295C11.0071 14.5511 11.2969 14.6619 11.6293 14.6619Z" fill="#F2DAC2"/>
</svg>
