<svg width="24" height="24" viewBox="0 0 24 24" fill="none" xmlns="http://www.w3.org/2000/svg">
<path fill-rule="evenodd" clip-rule="evenodd" d="M5.75 9C5.75 6.92152 6.46457 5.37852 7.56253 4.35172C8.66848 3.31745 10.225 2.75 12 2.75C13.7732 2.75 15.33 3.32209 16.4368 4.35967C17.536 5.39007 18.25 6.93382 18.25 9C18.25 12.0195 16.616 15.1085 14.891 17.5083C14.0383 18.6946 13.1842 19.684 12.5433 20.3766C12.3374 20.5991 12.1539 20.7906 12 20.9476C11.8461 20.7906 11.6626 20.5991 11.4567 20.3766C10.8158 19.684 9.96171 18.6946 9.109 17.5083C7.38403 15.1085 5.75 12.0195 5.75 9ZM11.4903 22.5502C11.4905 22.5503 11.4906 22.5505 12 22L11.4906 22.5505C11.7781 22.8165 12.2219 22.8165 12.5094 22.5505L12 22C12.5094 22.5505 12.5095 22.5503 12.5097 22.5502L12.5102 22.5497L12.5117 22.5483L12.5166 22.5437L12.5339 22.5276C12.5486 22.5137 12.5698 22.4937 12.597 22.4677C12.6514 22.4157 12.7298 22.3397 12.8289 22.2414C13.0271 22.0449 13.308 21.7587 13.6442 21.3954C14.3158 20.6697 15.2117 19.6321 16.109 18.3838C17.884 15.9143 19.75 12.5034 19.75 9C19.75 6.56618 18.897 4.60993 17.4627 3.26533C16.036 1.92791 14.0928 1.25 12 1.25C9.90899 1.25 7.96553 1.92112 6.53797 3.25615C5.10244 4.59863 4.25 6.55563 4.25 9C4.25 12.5034 6.11597 15.9143 7.891 18.3838C8.78829 19.6321 9.68421 20.6697 10.3558 21.3954C10.692 21.7587 10.9729 22.0449 11.1711 22.2414C11.2702 22.3397 11.3486 22.4157 11.403 22.4677C11.4302 22.4937 11.4514 22.5137 11.4661 22.5276L11.4834 22.5437L11.4883 22.5483L11.4898 22.5497L11.4903 22.5502ZM9.75 9C9.75 7.75736 10.7574 6.75 12 6.75C13.2426 6.75 14.25 7.75736 14.25 9C14.25 10.2426 13.2426 11.25 12 11.25C10.7574 11.25 9.75 10.2426 9.75 9ZM12 5.25C9.92893 5.25 8.25 6.92893 8.25 9C8.25 11.0711 9.92893 12.75 12 12.75C14.0711 12.75 15.75 11.0711 15.75 9C15.75 6.92893 14.0711 5.25 12 5.25Z" fill="#977656"/>
</svg>
